<svg width="40" height="33" viewBox="0 0 40 33" fill="none" xmlns="http://www.w3.org/2000/svg">
<path d="M38.3333 2.00004C36.7373 3.12583 34.9701 3.98689 33.1 4.55004C32.0962 3.39589 30.7622 2.57786 29.2783 2.20658C27.7945 1.8353 26.2325 1.9287 24.8034 2.47412C23.3744 3.01955 22.1474 3.9907 21.2883 5.25623C20.4292 6.52176 19.9795 8.0206 20 9.55004V11.2167C17.071 11.2926 14.1687 10.6431 11.5516 9.32578C8.93453 8.0085 6.68382 6.06443 4.99996 3.6667C4.99996 3.6667 -1.66671 18.6667 13.3333 25.3334C9.90084 27.6633 5.81189 28.8316 1.66663 28.6667C16.6666 37 35 28.6667 35 9.50004C34.9984 9.03579 34.9538 8.57269 34.8666 8.1167C36.5676 6.43919 37.768 4.32122 38.3333 2.00004Z" stroke="#111111" stroke-width="2" stroke-linecap="round" stroke-linejoin="round"/>
</svg>
